<svg xmlns="http://www.w3.org/2000/svg" id="Layer_2" data-name="Layer 2" viewBox="0 0 104.5301 120.8057"><defs><style>      .cls-1 {        fill: #fc7d00;      }      .cls-2 {        fill: #dde200;      }      .cls-3 {        fill: #f8148a;      }      .cls-4 {        fill: #00a59e;      }      .cls-5 {        fill: #944aa3;      }      .cls-6 {        fill: #190c48;      }    </style></defs><g id="Contenido"><g><polygon class="cls-6" points=".382 114.8785 3.3232 114.8785 3.3232 115.4653 1.0141 115.4653 1.0141 117.1503 3.2551 117.1503 3.2551 117.737 1.0141 117.737 1.0141 119.9633 3.3232 119.9633 3.3232 120.5501 .382 120.5501 .382 114.8785"></polygon><polygon class="cls-6" points="5.8374 114.8785 6.5595 114.8785 7.7183 117.015 8.8766 114.8785 9.5987 114.8785 8.0642 117.6164 9.7416 120.5501 9.0195 120.5501 7.7183 118.2182 6.417 120.5501 5.6945 120.5501 7.3719 117.6164 5.8374 114.8785"></polygon><path class="cls-6" d="M12.8126,120.5501h-.6317v-5.6715h.9326c.4893,0,.9927.0151,1.4063.3014.4216.2929.6397.7893.6397,1.2932,0,.459-.1883.9255-.5418,1.2184-.3833.3161-.8721.3766-1.3462.3766h-.459v2.4818ZM12.8126,117.481h.4216c.6994,0,1.2937-.2101,1.2937-1.0225,0-.9255-.7448-.9932-1.482-.9932h-.2333v2.0157Z"></path><polygon class="cls-6" points="17.7343 114.8785 20.6756 114.8785 20.6756 115.4653 18.366 115.4653 18.366 117.1503 20.6075 117.1503 20.6075 117.737 18.366 117.737 18.366 119.9633 20.6756 119.9633 20.6756 120.5501 17.7343 120.5501 17.7343 114.8785"></polygon><path class="cls-6" d="M24.1527,120.55h-.6317v-5.6715h.82c1.0755,0,2.0758.2863,2.0758,1.5648,0,.8725-.5489,1.4891-1.4214,1.5643l1.8052,2.5424h-.7746l-1.7153-2.4894h-.158v2.4894ZM24.1527,117.5037h.1959c.7145,0,1.4366-.1353,1.4366-1.0154,0-.9326-.6847-1.023-1.4441-1.023h-.1883v2.0385Z"></path><rect class="cls-6" x="29.3826" y="114.8786" width=".6322" height="5.6715"></rect><polygon class="cls-6" points="32.9343 114.8785 35.8756 114.8785 35.8756 115.4653 33.5665 115.4653 33.5665 117.1503 35.8074 117.1503 35.8074 117.737 33.5665 117.737 33.5665 119.9633 35.8756 119.9633 35.8756 120.5501 32.9343 120.5501 32.9343 114.8785"></polygon><polygon class="cls-6" points="38.7585 114.6378 43.1818 119.2716 43.1818 114.8786 43.8139 114.8786 43.8139 120.8057 39.3906 116.1799 39.3906 120.5502 38.7585 120.5502 38.7585 114.6378"></polygon><path class="cls-6" d="M51.0902,116.1197c-.4514-.4661-1.0755-.7524-1.7299-.7524-1.2634,0-2.2864,1.0982-2.2864,2.347s1.0301,2.347,2.3016,2.347c.6393,0,1.2634-.3009,1.7148-.7524v.7826c-.4888.3535-1.0907.5565-1.6926.5565-1.6022,0-2.956-1.3012-2.956-2.911,0-1.6254,1.3311-2.956,2.956-2.956.6322,0,1.1891.1803,1.6926.5565v.7822Z"></path><rect class="cls-6" x="53.9392" y="114.8786" width=".6355" height="5.6715"></rect><path class="cls-6" d="M58.3454,118.9403l-.6847,1.6098h-.6913l2.6172-5.9422,2.5504,5.9422h-.6998l-.6695-1.6098h-2.4222ZM59.5719,116.0823l-.971,2.2717h1.9187l-.9478-2.2717Z"></path><path class="cls-6" d="M68.6093,114.8786h1.068c.8503,0,1.5426.1126,2.2121.6847.6468.5565.9402,1.3159.9402,2.1586,0,.8276-.3005,1.5572-.9255,2.1137-.6767.6019-1.3533.7145-2.2415.7145h-1.0533v-5.6715ZM69.7004,119.9634c.6918,0,1.2714-.0975,1.79-.5863.4666-.4367.7069-1.0311.7069-1.6628,0-.6468-.248-1.271-.7367-1.7001-.5195-.4585-1.0907-.5489-1.7602-.5489h-.459v4.498h.459Z"></path><rect class="cls-6" x="75.4944" y="114.8786" width=".6298" height="5.6715"></rect><path class="cls-6" d="M84.3196,117.6996c.0147.767-.0681,1.3987-.5867,2.0006-.5191.6019-1.3088.9478-2.099.9478-1.5946,0-2.9186-1.3235-2.9186-2.9186,0-1.6244,1.324-2.9484,2.9564-2.9484.9932,0,1.7976.4438,2.3995,1.226l-.459.4287c-.4737-.6695-1.1134-1.0684-1.9481-1.0684-1.2941,0-2.3172,1.0912-2.3172,2.3697,0,.6019.2408,1.174.6624,1.6022.4136.414,1.015.7221,1.6093.7221.9856,0,2.0233-.7221,2.0233-1.7754h-1.6845v-.5863h2.3621Z"></path><rect class="cls-6" x="87.0002" y="114.8786" width=".6322" height="5.6715"></rect><polygon class="cls-6" points="92.0563 120.5502 91.4246 120.5502 91.4246 115.4654 90.0553 115.4654 90.0553 114.8787 93.4404 114.8787 93.4404 115.4654 92.0563 115.4654 92.0563 120.5502"></polygon><path class="cls-6" d="M96.106,118.9403l-.6842,1.6098h-.6923l2.6181-5.9422,2.55,5.9422h-.6998l-.6695-1.6098h-2.4222ZM97.3325,116.0823l-.9705,2.2717h1.9178l-.9473-2.2717Z"></path><polygon class="cls-6" points="102.9164 119.9634 104.4812 119.9634 104.4812 120.5501 102.2842 120.5501 102.2842 114.8786 102.9164 114.8786 102.9164 119.9634"></polygon><rect class="cls-6" x="53.9392" y="113.5063" width=".6355" height=".7424"></rect><rect class="cls-6" width="104.5301" height="110.9824"></rect><polygon class="cls-4" points="20.4542 70.0739 14.6847 60.7674 9.1381 70.0739 1.544 70.0739 10.7758 56.152 2.2883 43.7192 9.9567 43.7192 14.8707 51.9081 19.7099 43.7192 27.117 43.7192 18.7791 56.152 28.3085 70.0739 20.4542 70.0739"></polygon><path class="cls-3" d="M50.0284,64.4715c-.5337,1.3027-1.297,2.4194-2.2892,3.3501-.9932.9307-2.1903,1.6566-3.5924,2.1781-1.4025.5205-2.9593.7812-4.6717.7812-1.737,0-3.3004-.2607-4.6902-.7812-1.3897-.5215-2.5684-1.2473-3.5361-2.1781-.9677-.9307-1.7124-2.0474-2.2334-3.3501-.5214-1.3031-.7822-2.7487-.7822-4.3367v-16.4155h6.3283v15.8941c0,.7202.0932,1.4025.2792,2.0479.1864.6454.4713,1.2227.8565,1.7309.3842.5087.8934.9118,1.526,1.2094.6326.2976,1.3964.4472,2.2892.4472.8934,0,1.6566-.1495,2.2892-.4472.6331-.2976,1.1479-.7008,1.5449-1.2094.397-.5082.6823-1.0855.856-1.7309.1737-.6454.2607-1.3277.2607-2.0479v-15.8941h6.3652v16.4155c0,1.588-.2669,3.0336-.8002,4.3367"></path><polygon class="cls-5" points="77.6299 70.0739 77.7789 51.4245 77.6668 51.4245 70.818 70.0739 66.3512 70.0739 59.6879 51.4245 59.5762 51.4245 59.7248 70.0739 53.7319 70.0739 53.7319 43.7192 62.7886 43.7192 68.789 60.6188 68.9381 60.6188 74.6777 43.7192 83.8839 43.7192 83.8839 70.0739 77.6299 70.0739"></polygon><polygon class="cls-1" points="15.8384 76.2012 15.8384 97.1214 9.4732 97.1214 9.4732 76.2012 2.0277 76.2012 2.0277 70.7667 23.2829 70.7667 23.2829 76.2012 15.8384 76.2012"></polygon><polygon class="cls-2" points="24.6976 97.1213 24.6976 70.7667 42.4162 70.7667 42.4162 76.1268 30.839 76.1268 30.839 81.1151 41.7831 81.1151 41.7831 86.2146 30.839 86.2146 30.839 91.6864 43.0858 91.6864 43.0858 97.1213 24.6976 97.1213"></polygon><path class="cls-4" d="M63.9317,96.656c-1.7124.7817-3.6851,1.1725-5.9185,1.1725-2.0351,0-3.9151-.3345-5.6398-1.005-1.7247-.67-3.2195-1.6192-4.4848-2.8476-1.2662-1.2284-2.259-2.6985-2.9787-4.411-.7202-1.7124-1.0793-3.5985-1.0793-5.6583,0-2.1085.3658-4.0201,1.0982-5.7326.7315-1.7124,1.7427-3.1698,3.0336-4.3741,1.2904-1.2033,2.8045-2.1274,4.5416-2.7728,1.7366-.6454,3.6104-.9681,5.6214-.9681,1.8605,0,3.6903.3293,5.4903.9866,1.799.6582,3.2569,1.6192,4.3731,2.885l-4.3173,4.3178c-.5962-.8191-1.3779-1.4266-2.3456-1.8236-.9681-.397-1.9604-.5957-2.9777-.5957-1.1172,0-2.1402.2049-3.0714.6142-.9307.4093-1.7304.9743-2.4004,1.6935-.67.7206-1.1915,1.57-1.5639,2.55-.3719.9804-.5583,2.0536-.5583,3.22,0,1.191.1864,2.2836.5583,3.2758.3724.9927.8872,1.8426,1.5454,2.5495.6568.7074,1.4446,1.2601,2.3635,1.6566.9175.3975,1.9225.5957,3.0151.5957,1.2653,0,2.3697-.2475,3.3127-.7443.9431-.4964,1.6997-1.1413,2.2708-1.9358l4.4299,4.1687c-1.1673,1.3405-2.6058,2.4014-4.3182,3.1831"></path><polygon class="cls-3" points="85.3727 97.1213 85.3727 86.1029 75.099 86.1029 75.099 97.1213 68.7338 97.1213 68.7338 70.7667 75.099 70.7667 75.099 80.7427 85.3727 80.7427 85.3727 70.7667 91.7379 70.7667 91.7379 97.1213 85.3727 97.1213"></polygon></g></g></svg>